<svg width="200" height="224" viewBox="0 0 200 224" fill="none" xmlns="http://www.w3.org/2000/svg">
<mask id="path-1-inside-1_123_17" fill="white">
<path fill-rule="evenodd" clip-rule="evenodd" d="M0 18V112V224H184L190.5 217L200 206V112V0H16L9.5 7L0 18Z"/>
</mask>
<path d="M0 18L-1.51365 16.6928L-2 17.2559V18H0ZM0 224H-2V226H0V224ZM184 224V226H184.872L185.466 225.361L184 224ZM190.5 217L191.966 218.361L191.99 218.335L192.014 218.307L190.5 217ZM200 206L201.514 207.307L202 206.744V206H200ZM200 0H202V-2H200V0ZM16 0V-2H15.1279L14.5344 -1.3609L16 0ZM9.5 7L8.03441 5.6391L8.0099 5.6655L7.98635 5.69276L9.5 7ZM2 112V18H-2V112H2ZM2 224V112H-2V224H2ZM184 222H0V226H184V222ZM189.034 215.639L182.534 222.639L185.466 225.361L191.966 218.361L189.034 215.639ZM198.486 204.693L188.986 215.693L192.014 218.307L201.514 207.307L198.486 204.693ZM198 112V206H202V112H198ZM198 0V112H202V0H198ZM16 2H200V-2H16V2ZM10.9656 8.3609L17.4656 1.3609L14.5344 -1.3609L8.03441 5.6391L10.9656 8.3609ZM1.51365 19.3072L11.0136 8.30724L7.98635 5.69276L-1.51365 16.6928L1.51365 19.3072Z" fill="black" mask="url(#path-1-inside-1_123_17)"/>
<mask id="path-3-inside-2_123_17" fill="white">
<path d="M8 170.186H52V215H8V170.186Z"/>
</mask>
<path d="M8 215H7V216H8V215ZM52 214H8V216H52V214ZM9 215V170.186H7V215H9Z" fill="black" mask="url(#path-3-inside-2_123_17)"/>
<mask id="path-5-inside-3_123_17" fill="white">
<path d="M192 54.814L148 54.814L148 10L192 10L192 54.814Z"/>
</mask>
<path d="M192 10L193 10L193 9.00001L192 9.00001L192 10ZM148 11L192 11L192 9.00001L148 9.00002L148 11ZM191 10L191 54.814L193 54.814L193 10L191 10Z" fill="black" mask="url(#path-5-inside-3_123_17)"/>
</svg>
