<svg width="226" height="257" viewBox="0 0 226 257" fill="white" stroke="#3040D3" stroke-width="2" xmlns="http://www.w3.org/2000/svg">
<g filter="url(#filter0_d_123_9)">
<path d="M32.9501 9L13 29V240H194.047L213 221V9H32.9501Z" fill="white"/>
</g>
<mask id="path-2-inside-1_123_9" fill="white">
<path d="M21 185H65V232H21V185Z"/>
</mask>
<path d="M21 232H20V233H21V232ZM65 231H21V233H65V231ZM22 232V185H20V232H22Z" fill="#3040D3" mask="url(#path-2-inside-1_123_9)"/>
<mask id="path-4-inside-2_123_9" fill="white">
<path d="M205 64L161 64L161 17L205 17L205 64Z"/>
</mask>
<path d="M205 17L206 17L206 16L205 16L205 17ZM161 18L205 18L205 16L161 16L161 18ZM204 17L204 64L206 64L206 17L204 17Z" fill="#3040D3" mask="url(#path-4-inside-2_123_9)"/>
<defs>
<filter id="filter0_d_123_9" x="0" y="0" width="226" height="257" filterUnits="userSpaceOnUse" color-interpolation-filters="sRGB">
<feFlood flood-opacity="0" result="BackgroundImageFix"/>
<feColorMatrix in="SourceAlpha" type="matrix" values="0 0 0 0 0 0 0 0 0 0 0 0 0 0 0 0 0 0 127 0" result="hardAlpha"/>
<feOffset dy="4"/>
<feGaussianBlur stdDeviation="6"/>
<feComposite in2="hardAlpha" operator="out"/>
<feColorMatrix type="matrix" values="0 0 0 0 0 0 0 0 0 0 0 0 0 0 0 0 0 0 0.15 0"/>
<feBlend mode="normal" in2="BackgroundImageFix" result="effect1_dropShadow_123_9"/>
<feBlend mode="normal" in="SourceGraphic" in2="effect1_dropShadow_123_9" result="shape"/>
</filter>
</defs>
</svg>
