<svg width="448" height="577" viewBox="0 0 448 577" fill="none" xmlns="http://www.w3.org/2000/svg">
<g filter="url(#filter0_d_128_8)">
<path d="M55.0948 9L13 56.7056V560H395.01L435 514.68V9H55.0948Z" fill="white"/>
<path d="M55.0948 9L13 56.7056V560H395.01L435 514.68V9H55.0948Z" stroke="#3040D3" stroke-width="2"/>
</g>
<mask id="path-2-inside-1_128_8" fill="white">
<path d="M21 454H118.565V549.749H21V454Z"/>
</mask>
<path d="M21 549.749H17V550.249H21V549.749ZM17 454V454.997H25V454H17ZM17 456.992V458.987H25V456.992H17ZM17 460.982V462.976H25V460.982H17ZM17 464.971V466.966H25V464.971H17ZM17 468.961V470.956H25V468.961H17ZM17 472.95V474.945H25V472.95H17ZM17 476.94V478.935H25V476.94H17ZM17 480.929V482.924H25V480.929H17ZM17 484.919V486.914H25V484.919H17ZM17 488.908V490.903H25V488.908H17ZM17 492.898V494.893H25V492.898H17ZM17 496.888V498.882H25V496.888H17ZM17 500.877V502.872H25V500.877H17ZM17 504.867V506.861H25V504.867H17ZM17 508.856V510.851H25V508.856H17ZM17 512.846V514.84H25V512.846H17ZM17 516.835V518.83H25V516.835H17ZM17 520.825V522.819H25V520.825H17ZM17 524.814V526.809H25V524.814H17ZM17 528.804V530.799H25V528.804H17ZM17 532.793V534.788H25V532.793H17ZM17 536.783V538.778H25V536.783H17ZM17 540.772V542.767H25V540.772H17ZM17 544.762V546.757H25V544.762H17ZM17 548.751V549.749H25V548.751H17ZM21 550.249H22.0163V549.249H21V550.249ZM24.0489 550.249H26.0815V549.249H24.0489V550.249ZM28.1141 550.249H30.1467V549.249H28.1141V550.249ZM32.1793 550.249H34.212V549.249H32.1793V550.249ZM36.2446 550.249H38.2772V549.249H36.2446V550.249ZM40.3098 550.249H42.3424V549.249H40.3098V550.249ZM44.375 550.249H46.4076V549.249H44.375V550.249ZM48.4402 550.249H50.4728V549.249H48.4402V550.249ZM52.5054 550.249H54.538V549.249H52.5054V550.249ZM56.5706 550.249H58.6033V549.249H56.5706V550.249ZM60.6359 550.249H62.6685V549.249H60.6359V550.249ZM64.7011 550.249H66.7337V549.249H64.7011V550.249ZM68.7663 550.249H70.7989V549.249H68.7663V550.249ZM72.8315 550.249H74.8641V549.249H72.8315V550.249ZM76.8967 550.249H78.9293V549.249H76.8967V550.249ZM80.9619 550.249H82.9946V549.249H80.9619V550.249ZM85.0272 550.249H87.0598V549.249H85.0272V550.249ZM89.0924 550.249H91.125V549.249H89.0924V550.249ZM93.1576 550.249H95.1902V549.249H93.1576V550.249ZM97.2228 550.249H99.2554V549.249H97.2228V550.249ZM101.288 550.249H103.321V549.249H101.288V550.249ZM105.353 550.249H107.386V549.249H105.353V550.249ZM109.418 550.249H111.451V549.249H109.418V550.249ZM113.484 550.249H115.516V549.249H113.484V550.249ZM117.549 550.249H118.565V549.249H117.549V550.249ZM21 549.749H13V550.749H21V549.749ZM13 454V454.997H29V454H13ZM13 456.992V458.987H29V456.992H13ZM13 460.982V462.976H29V460.982H13ZM13 464.971V466.966H29V464.971H13ZM13 468.961V470.956H29V468.961H13ZM13 472.95V474.945H29V472.95H13ZM13 476.94V478.935H29V476.94H13ZM13 480.929V482.924H29V480.929H13ZM13 484.919V486.914H29V484.919H13ZM13 488.908V490.903H29V488.908H13ZM13 492.898V494.893H29V492.898H13ZM13 496.888V498.882H29V496.888H13ZM13 500.877V502.872H29V500.877H13ZM13 504.867V506.861H29V504.867H13ZM13 508.856V510.851H29V508.856H13ZM13 512.846V514.84H29V512.846H13ZM13 516.835V518.83H29V516.835H13ZM13 520.825V522.819H29V520.825H13ZM13 524.814V526.809H29V524.814H13ZM13 528.804V530.799H29V528.804H13ZM13 532.793V534.788H29V532.793H13ZM13 536.783V538.778H29V536.783H13ZM13 540.772V542.767H29V540.772H13ZM13 544.762V546.757H29V544.762H13ZM13 548.751V549.749H29V548.751H13ZM21 550.749H22.0163V548.749H21V550.749ZM24.0489 550.749H26.0815V548.749H24.0489V550.749ZM28.1141 550.749H30.1467V548.749H28.1141V550.749ZM32.1793 550.749H34.212V548.749H32.1793V550.749ZM36.2446 550.749H38.2772V548.749H36.2446V550.749ZM40.3098 550.749H42.3424V548.749H40.3098V550.749ZM44.375 550.749H46.4076V548.749H44.375V550.749ZM48.4402 550.749H50.4728V548.749H48.4402V550.749ZM52.5054 550.749H54.538V548.749H52.5054V550.749ZM56.5706 550.749H58.6033V548.749H56.5706V550.749ZM60.6359 550.749H62.6685V548.749H60.6359V550.749ZM64.7011 550.749H66.7337V548.749H64.7011V550.749ZM68.7663 550.749H70.7989V548.749H68.7663V550.749ZM72.8315 550.749H74.8641V548.749H72.8315V550.749ZM76.8967 550.749H78.9293V548.749H76.8967V550.749ZM80.9619 550.749H82.9946V548.749H80.9619V550.749ZM85.0272 550.749H87.0598V548.749H85.0272V550.749ZM89.0924 550.749H91.125V548.749H89.0924V550.749ZM93.1576 550.749H95.1902V548.749H93.1576V550.749ZM97.2228 550.749H99.2554V548.749H97.2228V550.749ZM101.288 550.749H103.321V548.749H101.288V550.749ZM105.353 550.749H107.386V548.749H105.353V550.749ZM109.418 550.749H111.451V548.749H109.418V550.749ZM113.484 550.749H115.516V548.749H113.484V550.749ZM117.549 550.749H118.565V548.749H117.549V550.749Z" fill="#3040D3" mask="url(#path-2-inside-1_128_8)"/>
<mask id="path-4-inside-2_128_8" fill="white">
<path d="M429 112.749L331.435 112.749L331.435 17.0002L429 17.0002L429 112.749Z"/>
</mask>
<path d="M429 17.0002L433 17.0002L433 16.5002L429 16.5002L429 17.0002ZM433 112.749L433 111.752L425 111.752L425 112.749L433 112.749ZM433 109.757L433 107.762L425 107.762L425 109.757L433 109.757ZM433 105.767L433 103.773L425 103.773L425 105.767L433 105.767ZM433 101.778L433 99.783L425 99.783L425 101.778L433 101.778ZM433 97.7883L433 95.7935L425 95.7935L425 97.7883L433 97.7883ZM433 93.7987L433 91.804L425 91.804L425 93.7987L433 93.7987ZM433 89.8092L433 87.8144L425 87.8144L425 89.8092L433 89.8092ZM433 85.8197L433 83.8249L425 83.8249L425 85.8197L433 85.8197ZM433 81.8301L433 79.8354L425 79.8354L425 81.8301L433 81.8301ZM433 77.8406L433 75.8458L425 75.8458L425 77.8406L433 77.8406ZM433 73.8511L433 71.8563L425 71.8563L425 73.8511L433 73.8511ZM433 69.8615L433 67.8668L425 67.8668L425 69.8615L433 69.8615ZM433 65.872L433 63.8772L425 63.8772L425 65.872L433 65.872ZM433 61.8825L433 59.8877L425 59.8877L425 61.8825L433 61.8825ZM433 57.8929L433 55.8982L425 55.8982L425 57.8929L433 57.8929ZM433 53.9034L433 51.9086L425 51.9086L425 53.9034L433 53.9034ZM433 49.9139L433 47.9191L425 47.9191L425 49.9139L433 49.9139ZM433 45.9243L433 43.9296L425 43.9296L425 45.9243L433 45.9243ZM433 41.9348L433 39.94L425 39.94L425 41.9348L433 41.9348ZM433 37.9453L433 35.9505L425 35.9505L425 37.9453L433 37.9453ZM433 33.9557L433 31.961L425 31.961L425 33.9557L433 33.9557ZM433 29.9662L433 27.9714L425 27.9714L425 29.9662L433 29.9662ZM433 25.9767L433 23.9819L425 23.9819L425 25.9767L433 25.9767ZM433 21.9871L433 19.9924L425 19.9924L425 21.9871L433 21.9871ZM433 17.9976L433 17.0002L425 17.0002L425 17.9976L433 17.9976ZM429 16.5002L427.984 16.5002L427.984 17.5002L429 17.5002L429 16.5002ZM425.951 16.5002L423.918 16.5002L423.918 17.5002L425.951 17.5002L425.951 16.5002ZM421.886 16.5002L419.853 16.5002L419.853 17.5002L421.886 17.5002L421.886 16.5002ZM417.821 16.5002L415.788 16.5002L415.788 17.5002L417.821 17.5002L417.821 16.5002ZM413.755 16.5002L411.723 16.5002L411.723 17.5002L413.755 17.5002L413.755 16.5002ZM409.69 16.5002L407.658 16.5002L407.658 17.5002L409.69 17.5002L409.69 16.5002ZM405.625 16.5002L403.592 16.5002L403.592 17.5002L405.625 17.5002L405.625 16.5002ZM401.56 16.5002L399.527 16.5002L399.527 17.5002L401.56 17.5002L401.56 16.5002ZM397.495 16.5002L395.462 16.5002L395.462 17.5002L397.495 17.5002L397.495 16.5002ZM393.429 16.5002L391.397 16.5002L391.397 17.5002L393.429 17.5002L393.429 16.5002ZM389.364 16.5002L387.332 16.5002L387.332 17.5002L389.364 17.5002L389.364 16.5002ZM385.299 16.5002L383.266 16.5002L383.266 17.5002L385.299 17.5002L385.299 16.5002ZM381.234 16.5002L379.201 16.5002L379.201 17.5002L381.234 17.5002L381.234 16.5002ZM377.168 16.5002L375.136 16.5002L375.136 17.5002L377.168 17.5002L377.168 16.5002ZM373.103 16.5002L371.071 16.5002L371.071 17.5002L373.103 17.5002L373.103 16.5002ZM369.038 16.5002L367.005 16.5002L367.005 17.5002L369.038 17.5002L369.038 16.5002ZM364.973 16.5002L362.94 16.5002L362.94 17.5002L364.973 17.5002L364.973 16.5002ZM360.908 16.5002L358.875 16.5002L358.875 17.5002L360.908 17.5002L360.908 16.5002ZM356.842 16.5002L354.81 16.5002L354.81 17.5002L356.842 17.5002L356.842 16.5002ZM352.777 16.5002L350.745 16.5002L350.745 17.5002L352.777 17.5002L352.777 16.5002ZM348.712 16.5002L346.679 16.5002L346.679 17.5002L348.712 17.5002L348.712 16.5002ZM344.647 16.5002L342.614 16.5002L342.614 17.5002L344.647 17.5002L344.647 16.5002ZM340.582 16.5002L338.549 16.5002L338.549 17.5002L340.582 17.5002L340.582 16.5002ZM336.516 16.5002L334.484 16.5002L334.484 17.5002L336.516 17.5002L336.516 16.5002ZM332.451 16.5002L331.435 16.5002L331.435 17.5002L332.451 17.5002L332.451 16.5002ZM429 17.0002L437 17.0002L437 16.0002L429 16.0002L429 17.0002ZM437 112.749L437 111.752L421 111.752L421 112.749L437 112.749ZM437 109.757L437 107.762L421 107.762L421 109.757L437 109.757ZM437 105.767L437 103.773L421 103.773L421 105.767L437 105.767ZM437 101.778L437 99.783L421 99.783L421 101.778L437 101.778ZM437 97.7883L437 95.7935L421 95.7935L421 97.7883L437 97.7883ZM437 93.7987L437 91.804L421 91.804L421 93.7987L437 93.7987ZM437 89.8092L437 87.8144L421 87.8144L421 89.8092L437 89.8092ZM437 85.8197L437 83.8249L421 83.8249L421 85.8197L437 85.8197ZM437 81.8301L437 79.8354L421 79.8354L421 81.8301L437 81.8301ZM437 77.8406L437 75.8458L421 75.8458L421 77.8406L437 77.8406ZM437 73.8511L437 71.8563L421 71.8563L421 73.8511L437 73.8511ZM437 69.8615L437 67.8668L421 67.8668L421 69.8615L437 69.8615ZM437 65.872L437 63.8772L421 63.8772L421 65.872L437 65.872ZM437 61.8825L437 59.8877L421 59.8877L421 61.8825L437 61.8825ZM437 57.8929L437 55.8982L421 55.8982L421 57.8929L437 57.8929ZM437 53.9034L437 51.9086L421 51.9086L421 53.9034L437 53.9034ZM437 49.9139L437 47.9191L421 47.9191L421 49.9139L437 49.9139ZM437 45.9243L437 43.9296L421 43.9296L421 45.9243L437 45.9243ZM437 41.9348L437 39.94L421 39.94L421 41.9348L437 41.9348ZM437 37.9453L437 35.9505L421 35.9505L421 37.9453L437 37.9453ZM437 33.9557L437 31.961L421 31.961L421 33.9557L437 33.9557ZM437 29.9662L437 27.9714L421 27.9714L421 29.9662L437 29.9662ZM437 25.9767L437 23.9819L421 23.9819L421 25.9767L437 25.9767ZM437 21.9871L437 19.9924L421 19.9924L421 21.9871L437 21.9871ZM437 17.9976L437 17.0002L421 17.0002L421 17.9976L437 17.9976ZM429 16.0002L427.984 16.0002L427.984 18.0002L429 18.0002L429 16.0002ZM425.951 16.0002L423.918 16.0002L423.918 18.0002L425.951 18.0002L425.951 16.0002ZM421.886 16.0002L419.853 16.0002L419.853 18.0002L421.886 18.0002L421.886 16.0002ZM417.821 16.0002L415.788 16.0002L415.788 18.0002L417.821 18.0002L417.821 16.0002ZM413.755 16.0002L411.723 16.0002L411.723 18.0002L413.755 18.0002L413.755 16.0002ZM409.69 16.0002L407.658 16.0002L407.658 18.0002L409.69 18.0002L409.69 16.0002ZM405.625 16.0002L403.592 16.0002L403.592 18.0002L405.625 18.0002L405.625 16.0002ZM401.56 16.0002L399.527 16.0002L399.527 18.0002L401.56 18.0002L401.56 16.0002ZM397.495 16.0002L395.462 16.0002L395.462 18.0002L397.495 18.0002L397.495 16.0002ZM393.429 16.0002L391.397 16.0002L391.397 18.0002L393.429 18.0002L393.429 16.0002ZM389.364 16.0002L387.332 16.0002L387.332 18.0002L389.364 18.0002L389.364 16.0002ZM385.299 16.0002L383.266 16.0002L383.266 18.0002L385.299 18.0002L385.299 16.0002ZM381.234 16.0002L379.201 16.0002L379.201 18.0002L381.234 18.0002L381.234 16.0002ZM377.168 16.0002L375.136 16.0002L375.136 18.0002L377.168 18.0002L377.168 16.0002ZM373.103 16.0002L371.071 16.0002L371.071 18.0002L373.103 18.0002L373.103 16.0002ZM369.038 16.0002L367.005 16.0002L367.005 18.0002L369.038 18.0002L369.038 16.0002ZM364.973 16.0002L362.94 16.0002L362.94 18.0002L364.973 18.0002L364.973 16.0002ZM360.908 16.0002L358.875 16.0002L358.875 18.0002L360.908 18.0002L360.908 16.0002ZM356.842 16.0002L354.81 16.0002L354.81 18.0002L356.842 18.0002L356.842 16.0002ZM352.777 16.0002L350.745 16.0002L350.745 18.0002L352.777 18.0002L352.777 16.0002ZM348.712 16.0002L346.679 16.0002L346.679 18.0002L348.712 18.0002L348.712 16.0002ZM344.647 16.0002L342.614 16.0002L342.614 18.0002L344.647 18.0002L344.647 16.0002ZM340.582 16.0002L338.549 16.0002L338.549 18.0002L340.582 18.0002L340.582 16.0002ZM336.516 16.0002L334.484 16.0002L334.484 18.0002L336.516 18.0002L336.516 16.0002ZM332.451 16.0002L331.435 16.0002L331.435 18.0002L332.451 18.0002L332.451 16.0002Z" fill="#3040D3" mask="url(#path-4-inside-2_128_8)"/>
<defs>
<filter id="filter0_d_128_8" x="0" y="0" width="448" height="577" filterUnits="userSpaceOnUse" color-interpolation-filters="sRGB">
<feFlood flood-opacity="0" result="BackgroundImageFix"/>
<feColorMatrix in="SourceAlpha" type="matrix" values="0 0 0 0 0 0 0 0 0 0 0 0 0 0 0 0 0 0 127 0" result="hardAlpha"/>
<feOffset dy="4"/>
<feGaussianBlur stdDeviation="6"/>
<feComposite in2="hardAlpha" operator="out"/>
<feColorMatrix type="matrix" values="0 0 0 0 0 0 0 0 0 0 0 0 0 0 0 0 0 0 0.15 0"/>
<feBlend mode="normal" in2="BackgroundImageFix" result="effect1_dropShadow_128_8"/>
<feBlend mode="normal" in="SourceGraphic" in2="effect1_dropShadow_128_8" result="shape"/>
</filter>
</defs>
</svg>
