<svg width="34" height="34" viewBox="0 0 34 34" fill="none" xmlns="http://www.w3.org/2000/svg">
<path d="M28.75 33.0003L23.875 28.167L20.2084 31.8337L19.0417 30.667C18.4028 30.0281 18.0834 29.2364 18.0834 28.292C18.0834 27.3475 18.4028 26.5559 19.0417 25.917L26.0834 18.8753C26.7223 18.2364 27.5139 17.917 28.4584 17.917C29.4028 17.917 30.1945 18.2364 30.8334 18.8753L32 20.042L28.3334 23.7087L33.1667 28.5837C33.5 28.917 33.6667 29.3059 33.6667 29.7503C33.6667 30.1948 33.5 30.5837 33.1667 30.917L31.0834 33.0003C30.75 33.3337 30.3612 33.5003 29.9167 33.5003C29.4723 33.5003 29.0834 33.3337 28.75 33.0003ZM33.6667 6.83366L14.75 25.7503L14.9584 25.917C15.5973 26.5559 15.9167 27.3475 15.9167 28.292C15.9167 29.2364 15.5973 30.0281 14.9584 30.667L13.7917 31.8337L10.125 28.167L5.25004 33.0003C4.91671 33.3337 4.52782 33.5003 4.08337 33.5003C3.63893 33.5003 3.25004 33.3337 2.91671 33.0003L0.833374 30.917C0.500041 30.5837 0.333374 30.1948 0.333374 29.7503C0.333374 29.3059 0.500041 28.917 0.833374 28.5837L5.66671 23.7087L2.00004 20.042L3.16671 18.8753C3.8056 18.2364 4.59726 17.917 5.54171 17.917C6.48615 17.917 7.27782 18.2364 7.91671 18.8753L8.08337 19.0837L27 0.166992H33.6667V6.83366ZM8.58337 15.0837L0.333374 6.83366V0.166992H7.00004L15.25 8.41699L8.58337 15.0837Z" fill="black"/>
</svg>
